<svg width="104" height="26" viewBox="0 0 104 26" fill="none" xmlns="http://www.w3.org/2000/svg">
<path d="M30.1361 9.33624C30.6641 9.33624 31.0961 9.41624 31.4321 9.57624C31.7761 9.72824 32.0801 9.90824 32.3441 10.1162C32.5041 10.2362 32.6241 10.2522 32.7041 10.1642C32.7921 10.0682 32.8521 9.84824 32.8841 9.50424H33.1601C33.1441 9.80024 33.1321 10.1602 33.1241 10.5842C33.1161 11.0082 33.1121 11.5682 33.1121 12.2642H32.8361C32.7801 11.9202 32.7281 11.6482 32.6801 11.4482C32.6321 11.2402 32.5721 11.0642 32.5001 10.9202C32.4361 10.7762 32.3481 10.6322 32.2361 10.4882C31.9881 10.1602 31.6761 9.92424 31.3001 9.78024C30.9241 9.62824 30.5281 9.55224 30.1121 9.55224C29.7201 9.55224 29.3641 9.65224 29.0441 9.85224C28.7321 10.0442 28.4601 10.3242 28.2281 10.6922C28.0041 11.0602 27.8281 11.5042 27.7001 12.0242C27.5801 12.5442 27.5201 13.1282 27.5201 13.7762C27.5201 14.4482 27.5881 15.0442 27.7241 15.5642C27.8601 16.0762 28.0481 16.5082 28.2881 16.8602C28.5361 17.2122 28.8241 17.4802 29.1521 17.6642C29.4881 17.8402 29.8481 17.9282 30.2321 17.9282C30.5921 17.9282 30.9681 17.8562 31.3601 17.7122C31.7521 17.5682 32.0601 17.3362 32.2841 17.0162C32.4601 16.7842 32.5801 16.5322 32.6441 16.2602C32.7161 15.9882 32.7801 15.6082 32.8361 15.1202H33.1121C33.1121 15.8482 33.1161 16.4362 33.1241 16.8842C33.1321 17.3242 33.1441 17.6962 33.1601 18.0002H32.8841C32.8521 17.6562 32.7961 17.4402 32.7161 17.3522C32.6441 17.2642 32.5201 17.2762 32.3441 17.3882C32.0481 17.5962 31.7321 17.7802 31.3961 17.9402C31.0681 18.0922 30.6441 18.1682 30.1241 18.1682C29.3641 18.1682 28.6961 17.9962 28.1201 17.6522C27.5521 17.3082 27.1081 16.8122 26.7881 16.1642C26.4761 15.5162 26.3201 14.7362 26.3201 13.8242C26.3201 12.9282 26.4841 12.1442 26.8121 11.4722C27.1401 10.8002 27.5881 10.2762 28.1561 9.90024C28.7321 9.52424 29.3921 9.33624 30.1361 9.33624ZM40.0778 9.33624C40.8378 9.33624 41.5018 9.50824 42.0698 9.85224C42.6458 10.1962 43.0898 10.6922 43.4018 11.3402C43.7218 11.9802 43.8818 12.7602 43.8818 13.6802C43.8818 14.5762 43.7178 15.3602 43.3898 16.0322C43.0698 16.7042 42.6218 17.2282 42.0458 17.6042C41.4698 17.9802 40.8098 18.1682 40.0658 18.1682C39.3058 18.1682 38.6378 17.9962 38.0618 17.6522C37.4938 17.3082 37.0498 16.8122 36.7298 16.1642C36.4178 15.5162 36.2618 14.7362 36.2618 13.8242C36.2618 12.9282 36.4258 12.1442 36.7538 11.4722C37.0818 10.8002 37.5298 10.2762 38.0978 9.90024C38.6738 9.52424 39.3338 9.33624 40.0778 9.33624ZM40.0298 9.55224C39.5098 9.55224 39.0578 9.73224 38.6738 10.0922C38.2898 10.4522 37.9898 10.9482 37.7738 11.5802C37.5658 12.2122 37.4618 12.9442 37.4618 13.7762C37.4618 14.6242 37.5778 15.3642 37.8098 15.9962C38.0498 16.6202 38.3698 17.1042 38.7698 17.4482C39.1778 17.7842 39.6258 17.9522 40.1138 17.9522C40.6338 17.9522 41.0858 17.7722 41.4698 17.4122C41.8538 17.0522 42.1498 16.5562 42.3578 15.9242C42.5738 15.2842 42.6818 14.5522 42.6818 13.7282C42.6818 12.8722 42.5618 12.1322 42.3218 11.5082C42.0898 10.8842 41.7738 10.4042 41.3738 10.0682C40.9738 9.72424 40.5258 9.55224 40.0298 9.55224ZM54.1466 9.50424V9.74424C53.8746 9.75224 53.6666 9.79224 53.5226 9.86424C53.3866 9.93624 53.2946 10.0522 53.2466 10.2122C53.1986 10.3722 53.1746 10.6002 53.1746 10.8962V18.0602C53.1266 18.0602 53.0786 18.0602 53.0306 18.0602C52.9906 18.0602 52.9466 18.0602 52.8986 18.0602L47.8586 10.2722V16.6082C47.8586 16.8962 47.8826 17.1242 47.9306 17.2922C47.9866 17.4522 48.0906 17.5682 48.2426 17.6402C48.4026 17.7042 48.6386 17.7442 48.9506 17.7602V18.0002C48.8066 17.9842 48.6186 17.9762 48.3866 17.9762C48.1546 17.9682 47.9346 17.9642 47.7266 17.9642C47.5266 17.9642 47.3226 17.9682 47.1146 17.9762C46.9146 17.9762 46.7466 17.9842 46.6106 18.0002V17.7602C46.8826 17.7442 47.0866 17.7042 47.2226 17.6402C47.3666 17.5682 47.4626 17.4522 47.5106 17.2922C47.5586 17.1242 47.5826 16.8962 47.5826 16.6082V10.7762C47.5826 10.4802 47.5586 10.2642 47.5106 10.1282C47.4626 9.98424 47.3666 9.88824 47.2226 9.84024C47.0866 9.78424 46.8826 9.75224 46.6106 9.74424V9.50424C46.7466 9.51224 46.9146 9.52024 47.1146 9.52824C47.3226 9.53624 47.5266 9.54024 47.7266 9.54024C47.9026 9.54024 48.0706 9.53624 48.2306 9.52824C48.3906 9.52024 48.5346 9.51224 48.6626 9.50424L52.8986 16.0322V10.8962C52.8986 10.6002 52.8706 10.3722 52.8146 10.2122C52.7666 10.0522 52.6626 9.93624 52.5026 9.86424C52.3506 9.79224 52.1186 9.75224 51.8066 9.74424V9.50424C51.9506 9.51224 52.1386 9.52024 52.3706 9.52824C52.6106 9.53624 52.8306 9.54024 53.0306 9.54024C53.2386 9.54024 53.4426 9.53624 53.6426 9.52824C53.8506 9.52024 54.0186 9.51224 54.1466 9.50424ZM65.1532 18.2762L65.3332 18.3482C65.2372 18.6762 65.1252 18.9482 64.9972 19.1642C64.8772 19.3882 64.7372 19.5722 64.5772 19.7162C64.4252 19.8522 64.2172 19.9762 63.9532 20.0882C63.6972 20.2002 63.3652 20.2562 62.9572 20.2562C62.5332 20.2562 62.1212 20.1842 61.7212 20.0402C61.3292 19.9042 60.9212 19.7362 60.4972 19.5362C60.0732 19.3362 59.6052 19.1522 59.0932 18.9842C59.0372 18.9682 58.9852 18.9522 58.9372 18.9362C58.8892 18.9202 58.8452 18.9082 58.8052 18.9002C58.6532 18.9562 58.4892 19.0002 58.3132 19.0322C58.1372 19.0642 57.9692 19.0802 57.8092 19.0802C57.6492 19.0802 57.5172 19.0602 57.4132 19.0202C57.3092 18.9802 57.2572 18.9202 57.2572 18.8402C57.2572 18.6722 57.4732 18.5882 57.9052 18.5882C58.1852 18.5882 58.4852 18.6202 58.8052 18.6842C59.0932 18.6042 59.3412 18.5122 59.5492 18.4082C59.7572 18.3122 59.9692 18.2202 60.1852 18.1322C60.4092 18.0442 60.6772 17.9882 60.9892 17.9642L61.0012 18.1562C60.7612 18.1802 60.5532 18.2242 60.3772 18.2882C60.2012 18.3602 60.0252 18.4362 59.8492 18.5162C59.6732 18.5962 59.4652 18.6722 59.2252 18.7442C59.6252 18.8242 60.0612 18.9082 60.5332 18.9962C61.0052 19.0842 61.4612 19.1602 61.9012 19.2242C62.3412 19.2882 62.7172 19.3202 63.0292 19.3202C63.6052 19.3202 64.0572 19.2362 64.3852 19.0682C64.7212 18.9002 64.9772 18.6362 65.1532 18.2762ZM60.6292 9.33624C61.3892 9.33624 62.0532 9.50824 62.6212 9.85224C63.1972 10.1962 63.6412 10.6922 63.9532 11.3402C64.2732 11.9802 64.4332 12.7602 64.4332 13.6802C64.4332 14.5762 64.2692 15.3602 63.9412 16.0322C63.6212 16.7042 63.1732 17.2282 62.5972 17.6042C62.0212 17.9802 61.3612 18.1682 60.6172 18.1682C59.8572 18.1682 59.1892 17.9962 58.6132 17.6522C58.0452 17.3082 57.6012 16.8122 57.2812 16.1642C56.9692 15.5162 56.8132 14.7362 56.8132 13.8242C56.8132 12.9282 56.9772 12.1442 57.3052 11.4722C57.6332 10.8002 58.0812 10.2762 58.6492 9.90024C59.2252 9.52424 59.8852 9.33624 60.6292 9.33624ZM60.5812 9.55224C60.0612 9.55224 59.6092 9.73224 59.2252 10.0922C58.8412 10.4522 58.5412 10.9482 58.3252 11.5802C58.1172 12.2122 58.0132 12.9442 58.0132 13.7762C58.0132 14.6242 58.1292 15.3642 58.3612 15.9962C58.6012 16.6202 58.9212 17.1042 59.3212 17.4482C59.7292 17.7842 60.1772 17.9522 60.6652 17.9522C61.1852 17.9522 61.6372 17.7722 62.0212 17.4122C62.4052 17.0522 62.7012 16.5562 62.9092 15.9242C63.1252 15.2842 63.2332 14.5522 63.2332 13.7282C63.2332 12.8722 63.1132 12.1322 62.8732 11.5082C62.6412 10.8842 62.3252 10.4042 61.9252 10.0682C61.5252 9.72424 61.0772 9.55224 60.5812 9.55224ZM74.5414 9.50424V9.74424C74.2694 9.75224 74.0614 9.79224 73.9174 9.86424C73.7814 9.93624 73.6894 10.0522 73.6414 10.2122C73.5934 10.3722 73.5694 10.6002 73.5694 10.8962V14.5082C73.5694 15.0682 73.5334 15.5562 73.4614 15.9722C73.3894 16.3882 73.2614 16.7482 73.0774 17.0522C72.8774 17.3882 72.5854 17.6602 72.2014 17.8682C71.8174 18.0682 71.3774 18.1682 70.8814 18.1682C70.4974 18.1682 70.1294 18.1202 69.7774 18.0242C69.4334 17.9362 69.1294 17.7682 68.8654 17.5202C68.6334 17.2962 68.4494 17.0602 68.3134 16.8122C68.1854 16.5642 68.0974 16.2602 68.0494 15.9002C68.0014 15.5402 67.9774 15.0882 67.9774 14.5442V10.7762C67.9774 10.4802 67.9534 10.2642 67.9054 10.1282C67.8574 9.98424 67.7614 9.88824 67.6174 9.84024C67.4814 9.78424 67.2774 9.75224 67.0054 9.74424V9.50424C67.1734 9.51224 67.3934 9.52024 67.6654 9.52824C67.9374 9.53624 68.2294 9.54024 68.5414 9.54024C68.8214 9.54024 69.0974 9.53624 69.3694 9.52824C69.6494 9.52024 69.8814 9.51224 70.0654 9.50424V9.74424C69.7934 9.75224 69.5854 9.78424 69.4414 9.84024C69.3054 9.88824 69.2134 9.98424 69.1654 10.1282C69.1174 10.2642 69.0934 10.4802 69.0934 10.7762V14.7482C69.0934 15.1562 69.1134 15.5442 69.1534 15.9122C69.1934 16.2722 69.2734 16.5922 69.3934 16.8722C69.5214 17.1442 69.7134 17.3602 69.9694 17.5202C70.2254 17.6722 70.5654 17.7482 70.9894 17.7482C71.5974 17.7482 72.0654 17.6162 72.3934 17.3522C72.7294 17.0802 72.9614 16.7082 73.0894 16.2362C73.2254 15.7642 73.2934 15.2322 73.2934 14.6402V10.8962C73.2934 10.6002 73.2574 10.3722 73.1854 10.2122C73.1214 10.0522 73.0094 9.93624 72.8494 9.86424C72.6894 9.79224 72.4734 9.75224 72.2014 9.74424V9.50424C72.3454 9.51224 72.5334 9.52024 72.7654 9.52824C73.0054 9.53624 73.2254 9.54024 73.4254 9.54024C73.6334 9.54024 73.8374 9.53624 74.0374 9.52824C74.2454 9.52024 74.4134 9.51224 74.5414 9.50424ZM83.0331 9.50424C83.0011 9.78424 82.9771 10.0562 82.9611 10.3202C82.9531 10.5842 82.9491 10.7842 82.9491 10.9202C82.9491 11.0642 82.9531 11.2042 82.9611 11.3402C82.9691 11.4682 82.9771 11.5762 82.9851 11.6642H82.7091C82.6611 11.1922 82.5931 10.8202 82.5051 10.5482C82.4171 10.2682 82.2651 10.0722 82.0491 9.96024C81.8411 9.84024 81.5251 9.78024 81.1011 9.78024H80.1051C79.8331 9.78024 79.6251 9.80424 79.4811 9.85224C79.3451 9.89224 79.2531 9.98424 79.2051 10.1282C79.1571 10.2642 79.1331 10.4802 79.1331 10.7762V16.7282C79.1331 17.0162 79.1571 17.2322 79.2051 17.3762C79.2531 17.5202 79.3451 17.6162 79.4811 17.6642C79.6251 17.7042 79.8331 17.7242 80.1051 17.7242H80.9811C81.4851 17.7242 81.8651 17.6562 82.1211 17.5202C82.3851 17.3842 82.5731 17.1642 82.6851 16.8602C82.8051 16.5482 82.8931 16.1282 82.9491 15.6002H83.2251C83.2011 15.8162 83.1891 16.1042 83.1891 16.4642C83.1891 16.6162 83.1931 16.8362 83.2011 17.1242C83.2171 17.4042 83.2411 17.6962 83.2731 18.0002C82.8651 17.9842 82.4051 17.9762 81.8931 17.9762C81.3811 17.9682 80.9251 17.9642 80.5251 17.9642C80.3491 17.9642 80.1211 17.9642 79.8411 17.9642C79.5691 17.9642 79.2731 17.9682 78.9531 17.9762C78.6331 17.9762 78.3091 17.9802 77.9811 17.9882C77.6531 17.9882 77.3411 17.9922 77.0451 18.0002V17.7602C77.3171 17.7442 77.5211 17.7122 77.6571 17.6642C77.8011 17.6162 77.8971 17.5202 77.9451 17.3762C77.9931 17.2322 78.0171 17.0162 78.0171 16.7282V10.7762C78.0171 10.4802 77.9931 10.2642 77.9451 10.1282C77.8971 9.98424 77.8011 9.88824 77.6571 9.84024C77.5211 9.78424 77.3171 9.75224 77.0451 9.74424V9.50424C77.3411 9.51224 77.6531 9.52024 77.9811 9.52824C78.3091 9.52824 78.6331 9.53224 78.9531 9.54024C79.2731 9.54024 79.5691 9.54024 79.8411 9.54024C80.1211 9.54024 80.3491 9.54024 80.5251 9.54024C80.8931 9.54024 81.3091 9.54024 81.7731 9.54024C82.2451 9.53224 82.6651 9.52024 83.0331 9.50424ZM80.9691 13.6082C80.9691 13.6082 80.9691 13.6482 80.9691 13.7282C80.9691 13.8082 80.9691 13.8482 80.9691 13.8482H78.7731C78.7731 13.8482 78.7731 13.8082 78.7731 13.7282C78.7731 13.6482 78.7731 13.6082 78.7731 13.6082H80.9691ZM81.3171 12.0242C81.2851 12.4802 81.2691 12.8282 81.2691 13.0682C81.2771 13.3082 81.2811 13.5282 81.2811 13.7282C81.2811 13.9282 81.2851 14.1482 81.2931 14.3882C81.3011 14.6282 81.3211 14.9762 81.3531 15.4322H81.0771C81.0451 15.1762 81.0051 14.9282 80.9571 14.6882C80.9171 14.4402 80.8211 14.2402 80.6691 14.0882C80.5251 13.9282 80.2771 13.8482 79.9251 13.8482V13.6082C80.1891 13.6082 80.3891 13.5562 80.5251 13.4522C80.6691 13.3402 80.7731 13.2002 80.8371 13.0322C80.9011 12.8642 80.9451 12.6922 80.9691 12.5162C80.9931 12.3322 81.0171 12.1682 81.0411 12.0242H81.3171ZM88.6056 9.37224C89.0056 9.37224 89.3096 9.42024 89.5176 9.51624C89.7256 9.60424 89.9096 9.70424 90.0696 9.81624C90.1656 9.87224 90.2416 9.91624 90.2976 9.94824C90.3616 9.97224 90.4216 9.98424 90.4776 9.98424C90.5576 9.98424 90.6136 9.94024 90.6456 9.85224C90.6856 9.76424 90.7176 9.63224 90.7416 9.45624H91.0176C91.0096 9.59224 90.9976 9.75624 90.9816 9.94824C90.9736 10.1322 90.9656 10.3802 90.9576 10.6922C90.9576 10.9962 90.9576 11.4002 90.9576 11.9042H90.6816C90.6576 11.5202 90.5736 11.1522 90.4296 10.8002C90.2856 10.4482 90.0736 10.1602 89.7936 9.93624C89.5216 9.71224 89.1616 9.60024 88.7136 9.60024C88.2896 9.60024 87.9376 9.72824 87.6576 9.98424C87.3856 10.2402 87.2496 10.5762 87.2496 10.9922C87.2496 11.3522 87.3416 11.6562 87.5256 11.9042C87.7096 12.1442 87.9536 12.3642 88.2576 12.5642C88.5696 12.7562 88.9056 12.9642 89.2656 13.1882C89.6816 13.4442 90.0496 13.7002 90.3696 13.9562C90.6976 14.2042 90.9536 14.4802 91.1376 14.7842C91.3296 15.0882 91.4256 15.4562 91.4256 15.8882C91.4256 16.4002 91.3096 16.8242 91.0776 17.1602C90.8456 17.4962 90.5376 17.7482 90.1536 17.9162C89.7696 18.0842 89.3456 18.1682 88.8816 18.1682C88.4576 18.1682 88.1216 18.1202 87.8736 18.0242C87.6256 17.9282 87.4136 17.8282 87.2376 17.7242C87.0616 17.6122 86.9256 17.5562 86.8296 17.5562C86.7496 17.5562 86.6896 17.6002 86.6496 17.6882C86.6176 17.7762 86.5896 17.9082 86.5656 18.0842H86.2896C86.3056 17.9162 86.3136 17.7202 86.3136 17.4962C86.3216 17.2642 86.3256 16.9642 86.3256 16.5962C86.3336 16.2282 86.3376 15.7642 86.3376 15.2042H86.6136C86.6456 15.6842 86.7336 16.1322 86.8776 16.5482C87.0296 16.9642 87.2576 17.3002 87.5616 17.5562C87.8736 17.8042 88.2856 17.9282 88.7976 17.9282C89.0616 17.9282 89.3096 17.8762 89.5416 17.7722C89.7816 17.6602 89.9776 17.4882 90.1296 17.2562C90.2816 17.0162 90.3576 16.7082 90.3576 16.3322C90.3576 16.0042 90.2776 15.7202 90.1176 15.4802C89.9656 15.2322 89.7496 15.0042 89.4696 14.7962C89.1896 14.5802 88.8616 14.3602 88.4856 14.1362C88.1096 13.9042 87.7576 13.6682 87.4296 13.4282C87.1016 13.1882 86.8376 12.9122 86.6376 12.6002C86.4456 12.2802 86.3496 11.8962 86.3496 11.4482C86.3496 10.9762 86.4536 10.5882 86.6616 10.2842C86.8776 9.97224 87.1576 9.74424 87.5016 9.60024C87.8456 9.44824 88.2136 9.37224 88.6056 9.37224ZM100.798 9.50424C100.766 9.80824 100.742 10.1042 100.726 10.3922C100.718 10.6722 100.714 10.8882 100.714 11.0402C100.714 11.2322 100.718 11.4122 100.726 11.5802C100.734 11.7482 100.742 11.8962 100.75 12.0242H100.474C100.418 11.4642 100.342 11.0242 100.246 10.7042C100.15 10.3762 99.9821 10.1402 99.7421 9.99624C99.5021 9.85224 99.1301 9.78024 98.6261 9.78024H97.9781V16.6082C97.9781 16.9282 98.0061 17.1682 98.0621 17.3282C98.1261 17.4882 98.2461 17.5962 98.4221 17.6522C98.5981 17.7082 98.8541 17.7442 99.1901 17.7602V18.0002C98.9821 17.9842 98.7181 17.9762 98.3981 17.9762C98.0781 17.9682 97.7541 17.9642 97.4261 17.9642C97.0661 17.9642 96.7261 17.9682 96.4061 17.9762C96.0941 17.9762 95.8421 17.9842 95.6501 18.0002V17.7602C95.9861 17.7442 96.2421 17.7082 96.4181 17.6522C96.5941 17.5962 96.7101 17.4882 96.7661 17.3282C96.8301 17.1682 96.8621 16.9282 96.8621 16.6082V9.78024H96.2141C95.7181 9.78024 95.3461 9.85224 95.0981 9.99624C94.8581 10.1402 94.6901 10.3762 94.5941 10.7042C94.4981 11.0242 94.4221 11.4642 94.3661 12.0242H94.0901C94.1061 11.8962 94.1141 11.7482 94.1141 11.5802C94.1221 11.4122 94.1261 11.2322 94.1261 11.0402C94.1261 10.8882 94.1181 10.6722 94.1021 10.3922C94.0941 10.1042 94.0741 9.80824 94.0421 9.50424C94.3781 9.51224 94.7421 9.52024 95.1341 9.52824C95.5341 9.53624 95.9341 9.54024 96.3341 9.54024C96.7341 9.54024 97.0981 9.54024 97.4261 9.54024C97.7541 9.54024 98.1141 9.54024 98.5061 9.54024C98.9061 9.54024 99.3061 9.53624 99.7061 9.52824C100.106 9.52024 100.47 9.51224 100.798 9.50424Z" fill="#555248"/>
<path d="M21.0099 8.69434C21.8207 10.2065 22.1602 11.8438 22.0802 13.4398C21.9256 16.5217 20.2074 19.4468 17.2917 21.0103C15.5877 21.924 13.7244 22.2394 11.9404 22.0299C9.08509 21.6947 6.43639 20.0161 4.97576 17.292C2.60158 12.8643 4.2663 7.35026 8.694 4.97607C9.74841 4.41069 10.8633 4.07467 11.9822 3.95C13.622 3.76729 15.2725 4.03833 16.754 4.70967C18.5103 5.50552 20.0281 6.86323 21.0099 8.69434Z" stroke="url(#paint0_linear_0_495)"/>
<defs>
<linearGradient id="paint0_linear_0_495" x1="3.75599" y1="11.7235" x2="23.9646" y2="12.9922" gradientUnits="userSpaceOnUse">
<stop offset="0.288448" stop-color="#555248"/>
<stop offset="0.780176" stop-color="#1B1A17" stop-opacity="0"/>
</linearGradient>
</defs>
</svg>
